<svg id="Layer_1" data-name="Layer 1" xmlns="http://www.w3.org/2000/svg" viewBox="0 0 23.92 23.92">
  <defs>
    <style>
      .cls-1 {
        fill: #fff;
      }
    </style>
  </defs>
  <title>icon_instagram</title>
  <path class="cls-1" d="M310,432.46H286V408.54H310ZM298,412.82h-5.16c-1.77,0-2.49.72-2.5,2.51q0,5.21,0,10.41c0,1.65.76,2.4,2.42,2.4h10.5a2.09,2.09,0,0,0,2.41-2.4q0-5.25,0-10.51c0-1.66-.75-2.4-2.41-2.4H298" transform="translate(-286.04 -408.54)"/>
  <path class="cls-1" d="M302.77,419.5h1.43v5.05c0,2.13,0,2.13-2.09,2.13h-9c-1.08,0-1.28-.18-1.28-1.23,0-1.94,0-3.87,0-5.91l1.49-.07a5,5,0,0,0,1.6,4.63,4.62,4.62,0,0,0,3.19,1.13c2.88-.05,4.39-1.89,4.67-5.72" transform="translate(-286.04 -408.54)"/>
  <path class="cls-1" d="M301.22,420.49a3.21,3.21,0,1,1-3.2-3.21,3.21,3.21,0,0,1,3.2,3.21" transform="translate(-286.04 -408.54)"/>
  <path class="cls-1" d="M302.51,417.16c-1.19,0-1.3-.09-1.3-1.24s.11-1.26,1.19-1.27,1.36.13,1.37,1.2-.14,1.31-1.26,1.31" transform="translate(-286.04 -408.54)"/>
</svg>
