<svg id="Layer_1" data-name="Layer 1" xmlns="http://www.w3.org/2000/svg" viewBox="0 0 23.92 23.92">
  <defs>
    <style>
      .cls-1 {
        fill: #fff;
      }
    </style>
  </defs>
  <title>icon_youtube</title>
  <path class="cls-1" d="M310,432.46H286V408.54H310ZM298,425.36c1.31,0,2.62,0,3.94,0a2.82,2.82,0,0,0,2.85-2.86q0-2,0-3.93a2.84,2.84,0,0,0-2.95-2.95c-2.56,0-5.12,0-7.68,0a2.83,2.83,0,0,0-2.95,2.95c0,1.28,0,2.57,0,3.84a2.84,2.84,0,0,0,2.95,3c1.28,0,2.56,0,3.84,0" transform="translate(-286.04 -408.54)"/>
  <path class="cls-1" d="M296.63,417.84l3.2,2.21a5.45,5.45,0,0,1,.58.47l-3.78,2.6Z" transform="translate(-286.04 -408.54)"/>
</svg>
